# xmcd CD database file
#
# Track frame offsets:
#	150
#	35928
#	70424
#	94600
#	126665
#	150766
#
# Disc length: 2498 seconds
#
# Revision: 0
# Processed by: cddbd v1.5.2PL0 Copyright (c) Steve Scherf et al.
# Submitted via: CDex 1.70beta2
#
DISCID=4e09c006
DTITLE=Horace Silver - Silver 'N Brass
DYEAR=1975
DGENRE=Jazz
TTITLE0=Kissin' Cousins
TTITLE1=Barbara
TTITLE2=Dameron's Dance
TTITLE3=The Sophisticated Hippie
TTITLE4=Adjustment
TTITLE5=Mysticism
EXTD=YEAR: 1975
EXTT0=
EXTT1=
EXTT2=
EXTT3=
EXTT4=
EXTT5=
PLAYORDER=
